<svg width="53" height="53" viewBox="0 0 53 53" fill="none" xmlns="http://www.w3.org/2000/svg">
<path d="M50.0809 37.9834H48.8629C48.3909 37.9836 47.9273 38.1081 47.5182 38.3445L42.199 41.4236C42.0766 41.4847 41.9418 41.5165 41.8051 41.5168L39.9716 41.5167C40.2887 40.982 40.4577 40.372 40.4613 39.7497C40.4602 38.8129 40.0892 37.9148 39.4296 37.2524C38.77 36.59 37.8757 36.2174 36.9429 36.2163L25.7156 36.2168C24.2859 36.2184 22.8759 36.5526 21.5964 37.1933C20.5612 37.7117 19.4204 37.9822 18.2636 37.9834H14.0735V37.1001C14.073 36.6317 13.8875 36.1826 13.5577 35.8514C13.2279 35.5202 12.7807 35.3339 12.3143 35.3334H8.79592C8.79546 34.865 8.60997 34.4159 8.28016 34.0847C7.95035 33.7535 7.50316 33.5672 7.03674 33.5668H0V35.3334H7.03674V51.2335H0V53.0001H7.03674C7.50316 52.9997 7.95035 52.8134 8.28016 52.4822C8.60997 52.151 8.79546 51.7019 8.79592 51.2335H12.3143C12.7807 51.233 13.2279 51.0467 13.5577 50.7155C13.8875 50.3843 14.073 49.9352 14.0735 49.4668H16.3931C16.4986 49.4667 16.6033 49.4859 16.7019 49.5233L21.9469 51.4983C23.0331 51.9079 24.1839 52.1174 25.3441 52.1168H32.1017C33.0662 52.1172 34.0253 51.9722 34.947 51.6868L44.4009 48.7659C44.9923 48.584 45.5385 48.2781 46.0034 47.8684L51.8556 42.7262C52.2681 42.3636 52.5607 41.8833 52.6943 41.3493C52.8279 40.8153 52.7962 40.2532 52.6033 39.7378C52.4105 39.2224 52.0657 38.7784 51.615 38.4649C51.1643 38.1515 50.6292 37.9835 50.0809 37.9834ZM8.79592 49.4668V37.1001H12.3143L12.3156 49.4668H8.79592ZM50.6968 41.3969L44.8446 46.539C44.5658 46.7849 44.2382 46.9686 43.8834 47.0777L34.4295 49.9986C33.6754 50.2319 32.8908 50.3504 32.1017 50.3501H25.3441C24.3948 50.3507 23.4531 50.1791 22.5645 49.8438L17.3208 47.8696C17.0244 47.7572 16.71 47.6998 16.3931 47.7001H14.0735V39.7501H18.2636C19.6934 39.7484 21.1035 39.4142 22.3832 38.7736C23.4183 38.2552 24.5589 37.9847 25.7156 37.9834L36.9429 37.983C37.4094 37.983 37.8569 38.1691 38.1868 38.5005C38.5167 38.8318 38.7021 39.2811 38.7021 39.7497C38.7021 40.2182 38.5167 40.6676 38.1868 40.9989C37.8569 41.3302 37.4094 41.5164 36.9429 41.5164H30.7853V43.283L41.8051 43.2835C42.2319 43.281 42.652 43.1768 43.0309 42.9794L48.396 39.8756C48.5381 39.7935 48.699 39.7503 48.8629 39.7501H50.0809C50.2713 39.7502 50.4571 39.8085 50.6135 39.9174C50.77 40.0262 50.8897 40.1804 50.9566 40.3594C51.0235 40.5383 51.0345 40.7335 50.9881 40.9189C50.9417 41.1043 50.8401 41.271 50.6968 41.3969Z" fill="#0B08B8"/>
<path d="M17.5918 31.6241C17.5929 30.7152 17.8037 29.8189 18.2077 29.0056L19.2003 27.0116C19.8929 25.6254 20.1459 24.0592 19.9252 22.5242C19.7697 21.4526 19.9145 20.3586 20.3434 19.365C20.7723 18.3714 21.4684 17.5175 22.3536 16.899L26.0386 14.3085C27.018 13.618 28.1859 13.2483 29.3826 13.25H36.0401C37.0549 13.2506 38.0521 13.5165 38.9335 14.0217L41.1325 15.2837C42.5546 16.0979 43.7038 17.3179 44.4344 18.789L45.116 20.158C46.0455 22.0203 46.2442 24.1654 45.6726 26.1679L45.5657 26.5436C45.071 28.2763 45.2427 30.1325 46.0467 31.744C46.4217 32.4992 46.6173 33.3314 46.6184 34.1753V35.3334H48.3776V34.1753C48.376 33.0572 48.1169 31.9546 47.6204 30.9538C47.0135 29.7377 46.8838 28.3369 47.257 27.0293L47.364 26.6532C48.0568 24.2257 47.8161 21.6254 46.6897 19.3678L46.0081 17.9988C45.1223 16.2156 43.7292 14.7368 42.0052 13.7499L39.8518 12.514C40.8328 11.9854 41.6528 11.1998 42.2247 10.2406C42.7966 9.28149 43.0991 8.18466 43.1 7.06668V2.65001C43.0992 1.94742 42.821 1.27382 42.3263 0.777019C41.8316 0.280212 41.1608 0.000769662 40.4612 2.75434e-06H37.6489C37.0162 -0.000757209 36.3931 0.155758 35.8353 0.455588C35.2774 0.755418 34.8022 1.18924 34.4518 1.71837C34.2619 2.00525 34.0042 2.24046 33.7017 2.40302C33.3993 2.56558 33.0615 2.65043 32.7184 2.65001H29.9336L28.8891 1.42637C28.5075 0.978802 28.034 0.619548 27.501 0.37332C26.968 0.127092 26.3882 -0.000267616 25.8015 2.75434e-06C24.7909 0.00110403 23.822 0.404757 23.1074 1.12239C22.3928 1.84003 21.9909 2.81304 21.9898 3.82794V7.06668C21.9915 8.22333 22.3162 9.35631 22.9269 10.3369C23.5377 11.3176 24.41 12.1065 25.4449 12.6143C25.3074 12.6984 25.163 12.7677 25.0301 12.861L21.3451 15.4515C20.1927 16.2565 19.2865 17.368 18.7282 18.6615C18.1698 19.9549 17.9814 21.379 18.1841 22.7739C18.3534 23.9533 18.1588 25.1565 17.6266 26.2214L16.6341 28.2154C16.1083 29.2742 15.834 30.441 15.8326 31.6241V34.4501H17.5918V31.6241ZM28.1469 11.4834C26.9809 11.482 25.8631 11.0162 25.0386 10.1882C24.2141 9.36024 23.7503 8.23764 23.749 7.06668V3.82794C23.7496 3.28145 23.9661 2.75753 24.3508 2.37111C24.7356 1.98469 25.2573 1.76731 25.8015 1.76667C26.1344 1.76652 26.4634 1.8388 26.7658 1.97856C27.0683 2.11832 27.3369 2.32223 27.5534 2.57625L30.8239 6.40763C31.2366 6.89166 31.7488 7.28017 32.3252 7.54643C32.9017 7.81269 33.5287 7.95038 34.1632 7.95002H36.9429V6.18335H34.1632C33.7825 6.18356 33.4063 6.10092 33.0604 5.94114C32.7145 5.78135 32.4072 5.54821 32.1596 5.25775L31.4417 4.41668H32.7184C33.3511 4.41744 33.9742 4.26092 34.5321 3.96109C35.0899 3.66126 35.5652 3.22744 35.9155 2.69832C36.1055 2.41143 36.3632 2.17622 36.6656 2.01366C36.9681 1.8511 37.3059 1.76625 37.6489 1.76667H40.4612C40.6944 1.76698 40.918 1.86014 41.0829 2.02573C41.2477 2.19132 41.3405 2.41583 41.3408 2.65001V7.06668C41.3395 8.23764 40.8757 9.36024 40.0512 10.1882C39.2267 11.0162 38.1089 11.482 36.9429 11.4834H28.1469Z" fill="#0B08B8"/>
<path d="M33.4245 32.6834V30.0334H34.7439C35.5604 30.0334 36.3434 29.7076 36.9207 29.1278C37.4981 28.548 37.8224 27.7616 37.8224 26.9417C37.8224 26.1217 37.4981 25.3353 36.9207 24.7555C36.3434 24.1757 35.5604 23.85 34.7439 23.85H33.4245V21.2H36.9429V19.4333H33.4245V16.7833H31.6653V19.4333H30.3459C29.5294 19.4333 28.7464 19.7591 28.169 20.3389C27.5917 20.9187 27.2673 21.705 27.2673 22.525C27.2673 23.345 27.5917 24.1313 28.169 24.7111C28.7464 25.291 29.5294 25.6167 30.3459 25.6167H31.6653V28.2667H28.1469V30.0334H31.6653V32.6834H33.4245ZM30.3459 23.85C29.996 23.85 29.6604 23.7104 29.413 23.4619C29.1655 23.2134 29.0265 22.8764 29.0265 22.525C29.0265 22.1736 29.1655 21.8366 29.413 21.5881C29.6604 21.3396 29.996 21.2 30.3459 21.2H31.6653V23.85H30.3459ZM33.4245 25.6167H34.7439C35.0938 25.6167 35.4294 25.7563 35.6768 26.0048C35.9243 26.2533 36.0633 26.5903 36.0633 26.9417C36.0633 27.2931 35.9243 27.6301 35.6768 27.8786C35.4294 28.1271 35.0938 28.2667 34.7439 28.2667H33.4245V25.6167Z" fill="#1EAD1B"/>
</svg>
